<?xml version="1.0" standalone="no"?>
<!DOCTYPE svg PUBLIC "-//W3C//DTD SVG 20010904//EN"
 "http://www.w3.org/TR/2001/REC-SVG-20010904/DTD/svg10.dtd">
<svg version="1.0" xmlns="http://www.w3.org/2000/svg"
 width="128.000000pt" height="128.000000pt" viewBox="0 0 128.000000 128.000000"
 preserveAspectRatio="xMidYMid meet">
<metadata>
Created by potrace 1.14, written by Peter Selinger 2001-2017
</metadata>
<g transform="translate(0.000000,128.000000) scale(0.100000,-0.100000)"
fill="#000000" stroke="none">
<path d="M180 904 c0 -6 17 -15 37 -20 l37 -9 97 -295 c62 -191 101 -296 111
-298 10 -2 34 58 88 228 40 126 76 230 79 230 3 0 40 -104 81 -230 44 -135 79
-230 87 -230 7 0 49 114 103 277 51 153 96 286 101 295 5 9 25 22 44 28 65 21
42 35 -60 35 -69 0 -95 -3 -95 -12 0 -7 11 -15 24 -19 14 -3 31 -13 40 -23 14
-15 9 -36 -53 -224 -37 -114 -70 -210 -73 -213 -8 -8 -150 435 -143 446 3 5
21 12 41 16 67 12 28 24 -89 27 -88 1 -117 -1 -117 -10 0 -7 9 -13 19 -13 26
0 57 -29 69 -65 8 -26 0 -59 -53 -220 -36 -110 -65 -184 -69 -175 -22 53 -136
408 -136 426 0 17 8 23 35 28 19 4 35 12 35 19 0 9 -33 12 -120 12 -79 0 -120
-4 -120 -11z"/>
</g>
</svg>
